# xmcd
#
# Track frame offsets:
# 150
# 3403
# 34044
# 61976
# 90357
# 111659
# 139274
# 166435
# 194018
# 196357
#
# Disc length: 2944 seconds
#
#
# Revision: 2
# Processed by: cddbd v1.5.1PL2 Copyright (c) Steve Scherf et al.
# Submitted via: CDex 1.40Beta4
#
DISCID=8b0b7e0a
DTITLE=rie - blue
DYEAR=1900
DGENRE=
TTITLE0=intro/rie
TTITLE1=RISE/rie
TTITLE2=LOVE IS WHAT WE LIVE FOR/rie
TTITLE3=OPEN YOUR MIND/rie
TTITLE4=DA DA DA/rie
TTITLE5=SOL/rie
TTITLE6=SHANDRA ROSE/rie
TTITLE7=RISING BRESS/rie
TTITLE8=interlude/rie
TTITLE9=SHANDRA/rie
EXTD=
EXTT0=
EXTT1=
EXTT2=
EXTT3=
EXTT4=
EXTT5=
EXTT6=
EXTT7=
EXTT8=
EXTT9=
PLAYORDER=
